<svg xmlns="http://www.w3.org/2000/svg" viewBox="0 0 274.4 353.23"><defs><style>.cls-1{fill:#bc0852;}</style></defs><title>Asset 5</title><g id="Layer_2" data-name="Layer 2"><g id="Layer_1-2" data-name="Layer 1"><path class="cls-1" d="M126.42,349.28c-32.8-27.38-67.49-65.49-92.12-107.5C13.68,206.62,0,168.58,0,131.38,0,95.1,15.36,62.25,40.19,38.48a141.54,141.54,0,0,1,194,0c24.83,23.77,40.18,56.62,40.18,92.9,0,30.76-9.35,62.09-24.24,91.9l-34.7-37.56a89.51,89.51,0,0,0,18.37-54.28c0-51.11-43.26-92.53-96.63-92.53S40.57,80.33,40.57,131.44c0,37,22.74,69,55.57,83.77L99.37,191c-21-12.24-35-34.34-35-59.56,0-30.85,20.92-57,49.91-66.19l10.14,10.12-9.38,70.36L156,120.9,150,75.37l10.13-10.12c29,9.19,49.92,35.34,49.92,66.19a68.22,68.22,0,0,1-23.38,51.17l-2.46,2.08A72.56,72.56,0,0,1,175,191l3.23,24.21a99.45,99.45,0,0,0,9.73-5.05L230.9,256.6c-23.7,36.17-54.13,68.68-83.07,92.82a16.71,16.71,0,0,1-21.41-.14ZM113.11,160.47l-4,29.77,51.92-31.48-3.37-25.32-44.58,27ZM107.18,205l-4.53,33.95c-.7,5.24,0,5.9,2,8.13l28,31.64c4,4.55,5.19,4.51,9,.18l28.48-32.2a6.64,6.64,0,0,0,1.84-6.3l-9.22-69.09L107.18,205Z"/></g></g></svg>